<?xml version="1.0" encoding="utf-8"?>
<svg version="1.2" xmlns="http://www.w3.org/2000/svg" viewBox="0 0 694 348" width="694" height="348">
  <title>DISTRITO 44 LOGO-19</title>
  <defs>
    <clipPath clipPathUnits="userSpaceOnUse" id="cp1">
      <path d="m2611.19 903.08h-1440v-1440.82h1440z"/>
    </clipPath>
    
    <linearGradient id="g1" x2="1" gradientUnits="userSpaceOnUse" gradientTransform="matrix(6.304,-1313.372,1381.241,6.63,1104.814,843.749)">
      <stop offset="0" stop-color="#000000" stop-opacity="1"/>
      <stop offset="1" stop-color="#000000" stop-opacity="0"/>
    </linearGradient>
    <clipPath clipPathUnits="userSpaceOnUse" id="cp2">
      <path d="m2611.19 900.06h-1429.44v-1437.8h1429.44z"/>
    </clipPath>
    
    <clipPath clipPathUnits="userSpaceOnUse" id="cp3">
      <path d="m1075.19 2407.96h-1429.44v-1437.8h1429.44z"/>
    </clipPath>
    <clipPath clipPathUnits="userSpaceOnUse" id="cp4">
      <path d="m2611.19 2407.96h-1429.44v-1437.8h1429.44z"/>
    </clipPath>
  </defs>
  <style>
		.s0 { fill: #ffffff } 
		.s1 { fill: #ff6600 } 
		.s2 { fill: #000000 } 
		.s3 { fill: url(#g1) } 
	</style>
  <g id="Capa 1">
    <g id="&lt;Group&gt;">
      <g id="&lt;Group&gt;-2">
        <g id="&lt;Group&gt;-2">
          <path id="&lt;Compound Path&gt;" fill-rule="evenodd" class="s0" d="m45.5 73.5h43.5c8.3 0 15.6 1.5 20.1 4.2 8.1 4.9 12.3 13.9 12.3 26.9l-0.2 9.8c0 20.5-0.7 25.1-5.3 32.1-5.1 7.3-13.4 10.2-28.1 10.2h-42.3zm40.4 64.2c5.8 0 8.3-1.3 10.4-4.9 1.7-2.9 2.2-7.5 2.2-18.8 0-9.9-0.6-14.6-2.2-17.1-1.8-2.9-4.6-4-10.4-4h-18.1v44.8z"/>
          <path id="&lt;Compound Path&gt;-2" class="s0" d="m154.5 156.7h-22.3v-83.2h22.3z"/>
          <path id="&lt;Compound Path&gt;-2" class="s0" d="m213.1 99.4v-1.5c0-6.6-2.3-8.1-11.8-8.1-10.8 0-13.4 1.5-13.4 8.1 0 2.8 0.6 4.8 1.8 5.8 1.4 1.2 2.2 1.4 9.3 1.9 20.2 1.5 20.4 1.5 25.7 3.1 9.1 2.8 12.1 8.3 12.1 21.7 0 11.2-1.6 17-5.9 20.7-5.5 4.7-12.2 6.2-28.7 6.2-21.2 0-29.2-2.1-33.4-8.8-2.7-4.1-3.4-8.6-3.4-18.7h21.2v1.6c0 3.5 0.8 5.6 2.5 6.9 1.9 1.4 2.9 1.6 13.1 1.6 7.2 0 8.4-0.2 10.2-1.8 1.7-1.3 2.4-3.2 2.4-6.6 0-5.9-1.7-7.2-10.5-7.7-13.6-0.8-20.4-1.5-24.7-2.5-10.3-2.6-14.1-8.8-14.1-23.6 0-10.1 2.1-16.4 6.9-19.7 5.5-3.9 12.5-5.1 28.7-5.1 17.5 0 24.6 1.7 28.8 7.1 3.1 3.7 4.5 8.7 4.5 15.7l-0.1 3.7z"/>
          <path id="&lt;Compound Path&gt;-2" class="s0" d="m285.4 156.7h-22.3v-64.1h-21.1v-19.1h65.9v19.1h-22.5z"/>
          <path id="&lt;Compound Path&gt;-2" class="s0" d="m333.2 113.2v18.8h-29.8v-18.8z"/>
          <path id="&lt;Compound Path&gt;-2" fill-rule="evenodd" class="s0" d="m45.5 172.9h42c12 0 17.4 1.1 22.3 4.9 5.3 4 7.3 9.8 7.3 21.1 0 12.1-1.5 17.7-5.6 20.9-2.1 1.8-4.1 2.5-10 4v0.9c10.2 0.5 15.2 6 15 16.2v15.2h-22.7v-11.1c0.2-7.7-2.8-11.2-9.4-11h-16.6v22.1h-22.3zm40 42.3c7.4 0 8.8-2 8.8-13.2 0-8.2-1.6-10-9.9-10h-16.6v23.2z"/>
          <path id="&lt;Compound Path&gt;-2" class="s0" d="m150.3 256.1h-22.3v-83.2h22.3z"/>
          <path id="&lt;Compound Path&gt;-2" class="s0" d="m201.6 256.1h-22.3v-64.1h-21.1v-19.1h65.9v19.1h-22.5z"/>
          <path id="&lt;Compound Path&gt;-2" fill-rule="evenodd" class="s0" d="m291.9 175.1c8 3.5 12.6 9.4 14.4 18.3 0.9 3.8 1.1 9.9 1.1 21.6 0 17.9-0.9 23.7-4.9 29.9-5.5 8.7-14.9 11.9-35.3 11.9-13 0-19.4-1.2-24.8-4.5-6.5-4-10-9.3-11.6-17.4-0.6-3.5-0.9-7.7-0.9-16 0-15.1 0.6-23.2 2.3-28.8 1.8-7 7.6-12.6 15.9-15.6 4.5-1.5 11.3-2.2 21.9-2.2 11.3 0 17.1 0.7 21.9 2.8zm-37.3 21.3c-1.4 2.7-1.7 6.8-1.7 19.2 0 20.6 1 21.9 16.2 21.9 9.1 0 12-1.2 13.8-5.9 1.3-3.3 1.7-7 1.7-18 0-11.5-0.3-14.1-1.5-17.1-1.8-4-4.8-5.1-13.8-5.1-9.7 0-12.7 1-14.7 5z"/>
        </g>
      </g>
      <g id="&lt;Group&gt;-2">
        <g id="&lt;Group&gt;-2"/>
      </g>
      <g id="&lt;Group&gt;-2">
        <g id="&lt;Group&gt;-2">
          <path id="&lt;Compound Path&gt;-2" class="s1" d="m366.2 33h132c24.9 0 47.2 4.6 60.8 12.9 24.6 14.8 37.1 42 37.1 81.3l-0.4 29.9c0 62-2.2 76-16.2 97.2-15.5 22.3-40.5 31-85.1 31h-128.2z"/>
        </g>
      </g>
      <path id="&lt;Path&gt;" class="s1" d="m658.6 170.1v-83.9l-30.7-25.6h-76.5l-8.3 11.7-13.8-11.7h-76.4l-66.1 89.2v57.4l30.6 25.6h50.6v5.4l30.7 25.5h61.2v-30.9h6.9l0.1 5.4 30.4 25.5h61.3v-30.9h13v-51.8z"/>
      <g id="&lt;Group&gt;-2">
        <path id="&lt;Path&gt;-2" class="s2" d="m651 173.7v-83.9l-25.8-21.6h-69.9l-10.8 15.1-18-15.1h-69.8l-62.4 84.1v51.4l25.9 21.5h55.4v9.4l25.8 21.6h50.9v-31h22l0.1 9.4 25.7 21.6h50.9v-31h13.1v-40.7z"/>
      </g>
      <g id="&lt;Group&gt;-2">
        <g id="&lt;Group&gt;-2">
          <g id="&lt;Group&gt;-2">
            <path id="&lt;Path&gt;-2" class="s1" d="m619.6 168.5v-94.7h-61.4l-37.2 52.2-22.4 30.2v41.9h81.2v31h39.8v-31h13.1v-29.6z"/>
          </g>
          <g id="&lt;Group&gt;-2">
            <g id="&lt;Group&gt;-2">
              <path id="&lt;Compound Path&gt;-2" fill-rule="evenodd" class="s1" d="m521 73.8v52.2l-22.4 30.2-7.1 9.6v39.4h29.5v23.9h-39.9v-31h-81.2v-44l59.6-80.3zm-39.8 32.1h-1.4l-47.3 62.6h48.7z"/>
            </g>
          </g>
        </g>
      </g>
      <g id="&lt;Group&gt;-2">
        <g id="&lt;Group&gt;-2">
          <g id="&lt;Group&gt;-2">
            <path id="&lt;Path&gt;-2" class="s2" d="m536.2 149.8h61c0.8 0 1.5-0.6 1.5-1.4v-2.1c0-0.8-0.7-1.4-1.5-1.4h-61c-0.8 0-1.5 0.6-1.5 1.4v2.1c0 0.8 0.7 1.4 1.5 1.4z"/>
          </g>
          <g id="&lt;Group&gt;-2">
            <path id="&lt;Path&gt;-2" class="s2" d="m597.9 152.4c-1.9 0-2.9 0.9-3.7 1.6-0.7 0.6-1.3 1.1-2.6 1.1-1.2 0-1.8-0.5-2.6-1.1-0.8-0.7-1.7-1.6-3.6-1.6-1.9 0-2.9 0.9-3.7 1.6-0.7 0.6-1.3 1.1-2.5 1.1-1.3 0-1.9-0.5-2.6-1.1-0.8-0.7-1.8-1.6-3.7-1.6-1.8 0-2.8 0.9-3.6 1.5-0.8 0.7-1.4 1.2-2.6 1.2-1.3 0-1.8-0.5-2.6-1.1-0.8-0.7-1.8-1.6-3.6-1.6-1.9 0-2.9 0.9-3.7 1.6-0.7 0.6-1.3 1.1-2.6 1.1-1.2 0-1.8-0.5-2.6-1.1-0.7-0.7-1.7-1.6-3.6-1.6-1.9 0-2.9 0.9-3.7 1.5-0.7 0.7-1.3 1.2-2.5 1.2-1.3 0-1.9-0.5-2.6-1.1-0.8-0.7-1.8-1.6-3.7-1.6-0.4 0-0.8 0.3-0.8 0.8 0 0.4 0.4 0.8 0.8 0.8 1.3 0 1.9 0.5 2.6 1.2 0.8 0.7 1.8 1.5 3.7 1.5 1.8 0 2.8-0.8 3.6-1.5 0.8-0.7 1.3-1.2 2.6-1.2 1.2 0 1.8 0.5 2.6 1.2 0.8 0.7 1.8 1.5 3.6 1.5 1.9 0 2.9-0.8 3.7-1.5 0.7-0.7 1.3-1.2 2.6-1.2 1.2 0 1.8 0.5 2.5 1.2 0.8 0.7 1.8 1.5 3.7 1.5 1.9 0 2.8-0.8 3.6-1.5 0.8-0.7 1.4-1.2 2.6-1.2 1.3 0 1.9 0.5 2.6 1.2 0.8 0.7 1.8 1.5 3.7 1.5 1.8 0 2.8-0.8 3.6-1.5 0.8-0.7 1.3-1.2 2.6-1.2 1.2 0 1.8 0.5 2.6 1.2 0.8 0.7 1.8 1.5 3.6 1.5 1.9 0 2.9-0.8 3.7-1.5 0.7-0.7 1.3-1.2 2.6-1.2 0.4 0 0.8-0.4 0.8-0.8 0-0.5-0.4-0.8-0.8-0.8z"/>
          </g>
          <g id="&lt;Group&gt;-2">
            <g id="&lt;Group&gt;-2">
              <path id="&lt;Compound Path&gt;-2" fill-rule="evenodd" class="s2" d="m537.5 139.9c0-16.1 13.1-29.2 29.2-29.2 16.1 0 29.2 13.1 29.2 29.2 0 1.3-1.1 2.4-2.4 2.4h-53.6c-1.3 0-2.4-1.1-2.4-2.4zm38.9-22.9c7.1 3.6 11.6 11.6 11.6 20.2 0 0.6-0.4 1.1-0.9 1.2-0.1 0.1-0.3 0.2-0.2 0.4 0 0.1 0.1 0.3 0.3 0.3h1.9c1 0 1.7-0.8 1.7-1.8 0-9.3-5.6-17.7-14.1-20.9-0.2-0.1-0.4 0-0.4 0.2-0.1 0.1 0 0.3 0.1 0.4z"/>
            </g>
          </g>
          <g id="&lt;Group&gt;-2">
            <g id="&lt;Group&gt;-2">
              <path id="&lt;Path&gt;-2" class="s2" d="m594.9 160.3c0-0.6-0.5-1-1.1-1h-1.6l-2.1 2h3.7c0.6 0 1.1-0.4 1.1-1z"/>
            </g>
            <g id="&lt;Group&gt;-2">
              <path id="&lt;Path&gt;-2" class="s2" d="m538.9 161.3h30.4l-2.1-2h-28.3c-0.5 0-1 0.4-1 1 0 0.6 0.5 1 1 1z"/>
            </g>
            <g id="&lt;Group&gt;-2">
              <g id="&lt;Group&gt;-2">
                <path id="&lt;Compound Path&gt;-2" fill-rule="evenodd" class="s2" d="m595.9 165.5c0 5.2-4.2 9.4-9.4 9.4h-39.6c-5.2 0-9.4-4.2-9.4-9.4 0-0.9 0.8-1.6 1.7-1.6h32.6l4.6 4.5c0.9 0.9 2 1.4 3.3 1.4 1.3 0 2.4-0.5 3.3-1.4l4.6-4.5h6.6c0.9 0 1.7 0.7 1.7 1.6zm-48.1 6.6c0-0.1-0.1-0.3-0.3-0.3-2.5 0-4.5-2.1-4.5-4.8 0-0.2 0.2-0.4 0.4-0.4 0.1 0 0.2-0.1 0.2-0.2 0-0.2-0.1-0.3-0.2-0.3h-1.4c-0.5 0-0.9 0.4-0.9 0.9 0 3 2.4 5.4 5.3 5.4h1.1c0.2 0 0.3-0.2 0.3-0.3z"/>
              </g>
            </g>
            <g id="&lt;Group&gt;-2">
              <path id="&lt;Path&gt;-2" class="s2" d="m581.6 167.6l8.4-8.4h-20.4l8.4 8.4c1 0.9 2.6 0.9 3.6 0z"/>
            </g>
          </g>
        </g>
      </g>
    </g>
    <g id="&lt;Clip Group&gt;" clip-path="url(#cp1)">
      
      <path id="&lt;Path&gt;-2" class="s3" d="m2721.4 916.5h-1691v-1607.2h1691z"/>
    </g>
    <g id="&lt;Clip Group&gt;-2" clip-path="url(#cp2)" style="mix-blend-mode: exclusion">
      
    </g>
    <g id="&lt;Clip Group&gt;-2" clip-path="url(#cp3)" style="mix-blend-mode: exclusion">
      
    </g>
    <g id="&lt;Clip Group&gt;-2" clip-path="url(#cp4)" style="mix-blend-mode: exclusion">
      
    </g>
  </g>
</svg>